<?xml version="1.0" encoding="utf-8"?>
<!-- Generator: Adobe Illustrator 27.7.0, SVG Export Plug-In . SVG Version: 6.00 Build 0)  -->
<svg version="1.1" xmlns="http://www.w3.org/2000/svg" xmlns:xlink="http://www.w3.org/1999/xlink" x="0px" y="0px"
	 viewBox="0 0 375 375" style="enable-background:new 0 0 375 375;" xml:space="preserve">
<style type="text/css">
	.st0{fill:#747474;}
	.st1{fill:#010101;stroke:#FFFFFF;stroke-width:0.9204;stroke-miterlimit:10;}
	.st2{fill:#010101;stroke:#010101;stroke-width:0.8218;stroke-miterlimit:10;}
	.st3{fill:#010101;stroke:#FFFFFF;stroke-width:0.6252;stroke-miterlimit:10;}
	.st4{fill:#FFFFFF;stroke:#010101;stroke-width:0.6252;stroke-miterlimit:10;}
	.st5{stroke:#FFFFFF;stroke-width:0.9204;stroke-miterlimit:10;}
	.st6{fill:none;}
	.st7{fill:none;stroke:#FFFFFF;stroke-width:0.9204;stroke-miterlimit:10;}
	.st8{fill:#010101;stroke:#FFFFFF;stroke-width:0.6343;stroke-miterlimit:10;}
</style>
<g id="Layer_1">
</g>
<g id="Concept_3">
	<rect x="-0.26" y="0.45" class="st0" width="375" height="375"/>
	<g id="pedal">
		<g id="Layer_1_00000107552330830099958250000018171863580652064897_">
			<path class="st1" d="M288.5,78.31c-79.98,81-159.96,161.99-239.94,242.99c-1.73,0.3-4.12,0.54-6.94,0.31
				c-3.27-0.28-5.88-1.09-7.63-1.79c-1.19-0.56-3.46-1.83-5.15-4.28c-2.87-4.16-1.89-8.53-1.66-9.48c-0.81,0.49-3.97,2.49-5.1,6.39
				c-0.84,2.9-0.1,5.31,0.26,6.29c1.09,1.48,2.98,3.64,5.94,5.58c2.66,1.74,5.2,2.65,6.98,3.14c0.24,0,1.8,0,2.88,1.13
				c0.96,0.99,1.18,2.46,0.56,3.76c-8.99,9.06-17.98,18.12-26.97,27.18c-1.58,1.96-8.61,10.78-7.2,11.99
				c1.42,1.21,10.65-5.9,12.65-7.45c92.35-93.71,184.69-187.42,277.04-281.13C292.32,81.39,290.41,79.85,288.5,78.31z"/>
			<path class="st1" d="M134.57,129.57L325.92,321.3c1.73,0.3,4.12,0.54,6.94,0.31c3.27-0.28,5.88-1.09,7.63-1.79
				c1.19-0.56,3.46-1.83,5.15-4.28c2.87-4.16,1.89-8.53,1.66-9.48c0.81,0.49,3.97,2.49,5.1,6.39c0.84,2.9,0.1,5.31-0.26,6.29
				c-1.09,1.48-2.98,3.64-5.94,5.58c-2.66,1.74-5.2,2.65-6.98,3.14c-0.24,0-1.8,0-2.88,1.13c-0.96,0.99-1.18,2.46-0.56,3.76
				c8.99,9.06,17.98,18.12,26.97,27.18c1.58,1.96,8.61,10.78,7.2,11.99c-1.42,1.21-10.65-5.9-12.65-7.45
				c-76.06-76.65-152.12-153.31-228.17-229.96L134.57,129.57z"/>
			<polygon class="st1" points="83.67,78.67 135.51,130.43 129.81,134.68 77.97,82.92 			"/>
			<path class="st1" d="M276.39,37.39l25.18-26.55c1.38-1.07,4.73-3.36,9.81-4.03c4.44-0.58,8.02,0.36,9.77,0.93
				c8.02,4.72,16.05,9.43,24.07,14.15c1.77,1.52,3.54,3.03,5.3,4.55l16.06,16.57c1.02,1.38,3.38,4.98,3.54,10
				c0.16,4.93-1.9,8.46-2.82,9.84c-8.39,9-16.79,18.01-25.19,27.01c-0.79,0.62-2.8,2.02-5.89,2.4c-3.2,0.39-5.71-0.54-6.67-0.95
				c-7.31-2.56-14.63-5.13-21.94-7.69c-0.13-0.05-1.09-0.38-2.03,0.1c-1.07,0.53-1.17,1.61-1.18,1.71
				c-1.01,1.09-2.02,2.19-3.02,3.28c-4-3.23-8-6.46-12-9.68c-1.9-1.54-3.8-3.07-5.71-4.61c1.06-1.15,2.13-2.31,3.19-3.46
				c0.14-0.07,1.05-0.53,1.29-1.54c0.28-1.19-0.59-2.09-0.67-2.17c-4.15-6.95-8.29-13.9-12.44-20.86c-0.28-0.96-0.61-2.53-0.37-4.43
				C274.96,39.82,275.82,38.25,276.39,37.39z M273.03,67.47 M315.99,18.84l10.7,17.59c0.67,0.87,1.47,1.79,2.43,2.72
				c2.55,2.47,5.23,4.07,7.33,5.08c6.6,2.26,13.21,4.51,19.81,6.77c0.76,0.17,1.53-0.09,1.93-0.64c0.49-0.68,0.16-1.46,0.13-1.53
				c-4.33-5.74-8.65-11.49-12.98-17.23c-0.74-0.92-1.63-1.91-2.69-2.92c-1.7-1.62-3.38-2.86-4.85-3.8
				c-1.95-1.32-3.89-2.64-5.84-3.96l-12.25-7.13c-0.22-0.02-1.89-0.17-3.15,1c-1.25,1.16-1.08,2.67-1.05,2.87
				C315.68,18.05,315.84,18.45,315.99,18.84z M333.34,37.31 M308.9,74.12c0.81,2.57,3.29,3.61,3.59,3.73
				c5.9,2.14,11.8,4.27,17.7,6.41c0.54,0.25,2.25,0.97,4.41,0.64c2.02-0.31,3.25-1.35,3.68-1.74c6.7-7.06,13.39-14.12,20.09-21.17
				c0.13-0.23,0.75-1.34,0.3-2.73c-0.54-1.66-2.17-2.33-2.38-2.41c-7.24-2.21-14.48-4.41-21.72-6.62c-0.45-0.24-2.12-1.08-4.24-0.73
				c-1.56,0.25-2.56,1.02-2.97,1.37l-17.64,18.6C309.51,69.72,308.12,71.63,308.9,74.12z M283.13,45.97l10.45,17.11
				c0.28,0.29,1.93,1.98,4.66,2.14c2.42,0.14,4.04-1.03,4.41-1.31c6.02-6.16,12.05-12.33,18.07-18.49c0.32-0.54,0.92-1.75,0.84-3.39
				c-0.07-1.33-0.56-2.34-0.87-2.88c-3.5-6.3-7-12.61-10.5-18.91c-0.67-1.19-1.96-1.98-3.34-2.05c-1.65-0.07-2.7,0.91-2.86,1.07
				c-6.56,6.91-13.11,13.82-19.67,20.73c-0.38,0.51-0.87,1.3-1.17,2.34C282.71,43.9,282.94,45.25,283.13,45.97z"/>
			<path class="st1" d="M99.79,41.96c0.24,1.9-0.09,3.48-0.37,4.43c-4.15,6.95-8.29,13.9-12.44,20.86
				c-0.08,0.08-0.95,0.99-0.67,2.17c0.24,1.02,1.15,1.48,1.29,1.54c1.06,1.15,2.13,2.31,3.19,3.46c-1.9,1.54-3.8,3.07-5.71,4.61
				c-4,3.23-8,6.46-12,9.68c-1.01-1.09-2.02-2.19-3.02-3.28c-0.01-0.09-0.11-1.18-1.18-1.71c-0.94-0.47-1.9-0.14-2.03-0.1
				c-7.31,2.56-14.63,5.13-21.94,7.69c-0.96,0.41-3.47,1.35-6.67,0.95c-3.09-0.38-5.1-1.78-5.89-2.4c-8.4-9-16.79-18.01-25.19-27.01
				c-0.92-1.38-2.98-4.91-2.82-9.84c0.16-5.02,2.53-8.62,3.54-10l16.06-16.57c1.77-1.52,3.54-3.03,5.3-4.55
				c8.02-4.72,16.05-9.43,24.07-14.15c1.74-0.57,5.33-1.52,9.77-0.93c5.08,0.67,8.43,2.96,9.81,4.03L98.1,37.39
				C98.67,38.25,99.53,39.82,99.79,41.96z M101.46,67.47 M58.95,17.66c0.03-0.2,0.2-1.71-1.05-2.87c-1.26-1.17-2.93-1.02-3.15-1
				L42.5,20.92c-1.95,1.32-3.89,2.64-5.84,3.96c-1.47,0.94-3.16,2.18-4.85,3.8c-1.06,1.01-1.95,2-2.69,2.92
				c-4.33,5.74-8.65,11.49-12.98,17.23c-0.03,0.07-0.36,0.85,0.13,1.53c0.4,0.55,1.17,0.81,1.93,0.64
				c6.6-2.26,13.21-4.51,19.81-6.77c2.1-1.01,4.79-2.6,7.33-5.08c0.96-0.93,1.76-1.86,2.43-2.72l10.7-17.59
				C58.65,18.45,58.8,18.05,58.95,17.66z M41.14,37.31 M64.77,69.46l-17.64-18.6c-0.41-0.36-1.41-1.12-2.97-1.37
				c-2.12-0.34-3.79,0.49-4.24,0.73c-7.24,2.21-14.48,4.41-21.72,6.62c-0.21,0.08-1.84,0.75-2.38,2.41c-0.45,1.38,0.16,2.5,0.3,2.73
				c6.7,7.06,13.39,14.12,20.09,21.17c0.43,0.4,1.66,1.43,3.68,1.74c2.17,0.33,3.87-0.38,4.41-0.64c5.9-2.14,11.8-4.27,17.7-6.41
				c0.3-0.12,2.78-1.16,3.59-3.73C66.37,71.63,64.97,69.72,64.77,69.46z M91.33,42.32c-0.29-1.05-0.78-1.83-1.17-2.34
				c-6.56-6.91-13.11-13.82-19.67-20.73c-0.17-0.16-1.22-1.14-2.86-1.07c-1.39,0.06-2.67,0.85-3.34,2.05
				c-3.5,6.3-7,12.61-10.5,18.91c-0.31,0.54-0.81,1.55-0.87,2.88c-0.08,1.64,0.52,2.85,0.84,3.39c6.02,6.16,12.05,12.33,18.07,18.49
				c0.37,0.28,2,1.45,4.41,1.31c2.73-0.15,4.39-1.84,4.66-2.14l10.45-17.11C91.54,45.25,91.77,43.9,91.33,42.32z"/>
			<path class="st2" d="M239.91,130.07"/>
			<path class="st1" d="M283.79,80.88"/>
		</g>
	</g>
	<path class="st3" d="M249.08,168.02"/>
	<path class="st4" d="M182.78,154.82"/>
	<path class="st3" d="M253.39,123.52"/>
	<path class="st4" d="M280.73,234.64"/>
	<path id="Black_x5F_flame2_00000078003700913010576140000003887700711508978845_" class="st3" d="M351.8,219.51
		c-2.47,15.85-21.47,21.8-23.5,39.08c-0.07,0.62-0.92,8.02-1.91,8.01c-0.45,0-0.57-1.56-2.11-4.49c-0.28-0.54-0.87-1.65-1.66-2.75
		c-0.86-1.2-2.36-2.94-4.97-4.75c-1.2-1-2.68-2.09-4.47-3.17c-2.66-1.6-5.24-2.71-7.38-3.48c-3.47-1.3-6.95-2.6-10.42-3.9
		c-4.81-1.34-9.63-2.67-14.44-4.01l-9.07-2.3c-2.38-0.5-5.94-1.22-10.31-1.97c-3.5-0.6-7.29-1.13-14.71-2.17
		c-5.94-0.83-8.96-1.25-11.28-1.48c-2.24-0.22-2.47-0.2-10.59-0.79c-2.34-0.17-3.08-0.23-5.01-0.37
		c-7.92-0.58-15.21-0.83-17.68-0.91c-1.41-0.05-6.91-0.23-14.67-0.27c-7.98-0.05-16.48-0.09-27.43,0.46
		c-10.08,0.51-17.68,1.29-23.57,1.91c-9.33,0.98-16,1.94-23.56,3.03c-11.45,1.65-18.05,2.86-23.69,4.07
		c-3.32,0.71-7.48,1.68-12.48,3.3c-0.87,0.28-3.66,1.2-7.22,2.62c-2.51,1-5.76,2.31-9.62,4.33c-4,2.09-8.21,4.34-12.06,8.22
		c-1.34,1.35-2.36,2.4-3.23,4.02c-2.27,4.22-1.19,7.9-1.71,7.95c-0.52,0.04-1.21-3.72-2.53-6.76c-2.88-6.64-8.38-9.55-12.26-12.75
		c-13.41-11.1-12.58-31.41-12.03-31.54c0.17-0.04,0.56,1.76,2.42,5.33c1.52,2.92,3.66,6.97,7.88,11.19c4.49,4.49,9,6.84,10.71,7.67
		c3.17,1.54,5.18,2,6.04,2.16c2.64,0.52,7.05,1.39,10.26-0.89c0.15-0.11,2.94-2.15,2.85-5.12c-0.08-2.49-2.15-4.09-4.97-6.57
		c-3.19-2.8-6.35-5.65-9.09-8.77c-11.61-13.23-11.32-28-11.15-33.01c0.22-6.11,1.62-10.62,4.4-19.64
		c2.37-7.68,3.94-12.75,7.92-19.01c5.43-8.56,12.07-14.13,16.71-17.97c12.62-10.43,28.36-18.66,29.91-17.55
		c0.62,0.44-1.4,2.07-4.1,5.85c-5.17,7.2-6.64,13.54-7.33,16.5c-0.74,3.17-2.13,10.86,0.58,20.47c1.57,5.58,5.57,19.75,21.11,26.95
		c3.09,1.43,8.34,3.78,14.09,2.75c6.45-1.15,9.72-5.87,11.13-7.98c4.41-6.59,2.78-12.12,1.76-21.1c-0.49-4.31-1.93-17.57,0.58-31.55
		c0.82-4.56,2.58-12.07,6.75-20.89c4.05-8.56,8.79-14.57,9.97-16.08c1.53-1.94,14.05-17.55,34.28-29.36
		c2.44-1.43,6.39-3.61,10.59-7.42c5.18-4.69,7.79-9.1,9.68-12.53c3.39-6.17,5.09-9.25,4.99-13.53c-0.15-6.64-4.44-11.12-3.6-11.44
		c0.82-0.3,5.09,3.96,9.55,9.63c5.72,7.28,10.51,13.38,13.23,22.5c3.06,10.26,1.7,18.42,1,22.88c-0.17,1.09-1.42,8.5-5.01,15.73
		c-0.49,0.99-1.24,2.49-2.48,4.45c-1.91,3.03-3.23,4.34-5.66,7.64c-1.45,1.97-2.35,3.36-3.91,5.78c-1.68,2.6-3,4.9-10.03,19.3
		c0,0-3.45,7.06-4.07,12.68c-0.12,1.1-0.04,2.18-0.04,2.18c0,0,0.03,0.43,0.09,0.87c0.86,5.98,4.19,8.66,5.02,9.3
		c2.78,2.13,8.47,4.91,13.05,3.57c3.28-0.96,4.51-3.59,5.77-6.26c2.64-5.63,0.69-8.44,2.05-14.2c0.95-4.06,2.9-6.84,4.98-9.82
		c1.04-1.49,6.65-9.05,19.06-15.46c8.2-4.24,16.17-6.31,16.32-6.1c0.14,0.18-6.17,1.8-12.44,5.88
		c-10.85,7.05-13.44,16.16-14.44,19.66c0,0-1.88,4.8,0,10.03c0.64,1.78,1.04,2.84,2.35,3.97c0.49,0.41,2.34,2.02,4.98,2.3
		c3.58,0.38,6.64-1.87,9.97-4.39c3.22-2.44,5.44-4.87,7.33-7.31c2.75-3.56,6.09-7.88,7.48-13.99c0.44-1.9,0.39-4.96,0.3-11.08
		c-0.05-3.56-0.26-7.36-1.31-11.93c-0.12-0.52-0.22-0.93-0.3-1.24c-0.45-1.78-1.53-5.74-3.51-10.45c-2.98-7.04-5.56-10-4.99-10.24
		c0.87-0.36,7.62,6.24,13.5,13.58c4.41,5.52,9.1,11.37,12.31,19.22c5.03,12.27,3.64,22.51,2.64,29.25c0,0-2.91,19.5-15.55,34.05
		c-0.08,0.1-0.32,0.38-0.65,0.77c-0.64,0.78-3.99,4.97-5.21,9.88c-0.95,3.83-2.5,10.07,2.34,13.16c3.37,2.15,8.28,1.8,12.9,1.47
		c1.4-0.1,9.58-0.76,16.43-4.39c9.95-5.28,9.27-12.71,15.54-24.86c8.19-15.85,21.03-25.76,22.29-25.28
		c1.46,0.56-7.88,16.57-7.91,25.91c-0.01,2.98,0.37,5.36,0.37,5.36c1.96,15.77-0.34,27.39-3.01,35.36
		c-2.03,6.06-6.02,15.2-1.01,21.4c0.56,0.7,2.58,3.11,5.86,3.63c6.1,0.96,11.66-5.45,13.01-6.87c8.95-9.42,5.69-22.67,4.9-25.89
		c-1.04-4.22-2.57-6.83-2.45-6.87C341.54,191.81,354.02,205.28,351.8,219.51z"/>
	<path id="white_x5F_flame2_00000150085874267941160120000002008911871775983002_" class="st4" d="M307.39,184.27
		c1.28,0.18,2.35,10.42-2.62,20.74c-2.23,4.63-3.17,4.07-5.86,9.76c-3.81,8.08-5.73,12.12-5.25,16.56c0.13,1.19,0.58,4.92,3.43,8.54
		c2.82,3.57,6.15,4.72,5.86,5.23c-0.58,1.01-13.35-4.32-31.15-8.55c-5.94-1.41-10.54-2.25-12.52-2.6
		c-5.57-0.98-9.78-1.49-14.65-2.08c-6.42-0.78-11.44-1.22-14.94-1.52c-7.41-0.64-12.91-0.95-14.13-1.02
		c-0.98-0.05-5.36-0.29-11.83-0.49c-10.27-0.31-18.25-0.29-20.92-0.28c-7.6,0.04-15.77,0.1-26.56,0.8
		c-4.62,0.3-8.02,0.61-11.48,0.92c-11,1-19.71,2.11-24.6,2.77c-2.73,0.37-5.47,0.74-8.76,1.24c-0.64,0.1-1.67,0.26-3.73,0.58
		c-3.39,0.53-6.24,0.98-6.73,1.06c-5.1,0.81-11.95,1.9-18.75,3.57c-3.83,0.94-9.18,2.44-15.48,4.86c1.37-4.86,2.21-11.54-1.16-18.01
		c-1.86-3.57-3.65-4.16-5.76-8.24c-1.24-2.39-5.49-10.63-3.34-18.44c3.09-11.22,18.46-18.06,21.05-19.18
		c-1.23,0.59-5.23,2.78-7.88,6.71c-3.44,5.1-2.57,10.06-2.26,11.68c1.54,7.92,8.66,12.66,10,13.53c1.46,0.94,13.1,8.44,24.86,5.3
		c2.07-0.55,7.53-1.98,10.23-6.48c2.16-3.59,1.4-7.21,1.21-8.02c-0.65-2.73-2.24-4.53-3.73-6.22c-1.99-2.26-4.11-3.75-5.59-4.65
		c0.07-0.11,5.79,1.07,11.21,4.19c1.15,0.66,2.07,1.27,2.61,1.67c2.1,1.54,3.29,3,5.26,4.8c0.87,0.79,5.66,6.21,11.83,7.65
		c4.05,0.94,8.35,0.13,10.71-0.99c7.59-3.62,9.55-17.52,3.23-33.9c-4.18-24.7,4.48-39.17,8.48-44.73
		c4.64-6.44,11.78-13.08,11.93-13.01c0.16,0.07-2.74,3.06-5.25,7.72c-0.65,1.21-1.17,2.34-1.6,3.39c0,0-1.04,2.53-1.71,5.36
		c-4.34,18.18,1.82,36.56,1.82,36.56c1.99,5.95,4.44,12.99,11.19,19.96c5.62,5.81,10.33,7.56,12.18,8.15
		c2.62,0.85,9.78,3.17,16.05-0.07c1.26-0.65,4.9-2.78,6.07-6.58c0.32-1.05,1.35-5.13-4.72-12.66c-5.55-6.88-11.24-9.47-14.92-12.23
		c-5.87-4.42-11.62-13.08-10.69-31.76c1.63,6.36,6.81,22.91,21.68,30.26c2.83,1.4,8.36,4.13,13.38,2.36
		c4.65-1.65,6.43-6.35,7.71-9.87c4.21-11.64,0.25-21.48,1.24-21.67c0.92-0.18,4.72,8.06,6.46,18.45c0.58,3.47,1.44,9.11,0.75,16.52
		c-1.32,14.02-6.93,20.55-3.23,24.68c2.24,2.5,7.38,3.56,10.36,2.08c5.36-2.66-0.21-11.6,5.76-20.68
		c5.25-7.98,16.13-11.06,16.58-10.54c0.32,0.37-4.57,2.54-7.6,7.75c-3.43,5.9-2.39,11.92-2.07,13.52
		c1.69,8.66,9.14,16.16,18.34,18.92c5.34,1.6,10.07,1.21,12.72,1.05c1.43-0.09,9.21-0.59,15.35-4.36
		C306.37,197.62,305.91,184.07,307.39,184.27z"/>
	<g id="Chainring_00000007425649135089762380000006957817517237088943_">
		<path class="st5" d="M105.21,294.9c0.88-0.45,1.69-0.89,2.53-1.28c1.56-0.73,1.67-1.55,0.01-2.13c-1.46-0.51-3.09-0.9-4.69-1
			c-3.62-0.23-7.23,0.16-10.67,0.97c-3.12,0.74-6.09,0.56-9.09-0.16c-0.42-0.1-0.86-0.39-1.03-0.67c-0.08-0.13,0.43-0.55,0.78-0.7
			c1.2-0.51,2.51-0.89,3.67-1.44c0.58-0.27,1.3-0.83,1.27-1.23c-0.04-0.4-0.85-0.92-1.47-1.09c-1-0.29-2.12-0.43-3.19-0.48
			c-3.9-0.16-7.78-0.01-11.61,0.65c-2.16,0.38-4.06-0.36-5.99-0.87c-0.26-0.07-0.56-0.44-0.53-0.64c0.04-0.21,0.4-0.48,0.71-0.57
			c0.87-0.25,1.8-0.36,2.66-0.62c1.29-0.39,2.6-0.78,3.79-1.3c1.34-0.59,1.27-1.44-0.17-1.87c-1.16-0.35-2.44-0.65-3.66-0.65
			c-3.81-0.01-7.62,0.1-11.43,0.24c-1.74,0.06-3.29-0.2-4.57-1.08c-0.87-0.6-0.64-1.08,0.54-1.29c2.87-0.5,5.76-0.93,8.59-1.51
			c1.24-0.25,2.38-0.8,3.65-1.23c-1.06-1.29-2.58-1.42-3.94-1.5c-3.66-0.23-7.34-0.3-11.01-0.43c-0.38-0.01-0.77,0-1.14-0.05
			c-1.01-0.15-2.14-0.99-2.08-1.58c0.1-1,1.25-1.03,2.16-1.13c2.09-0.22,4.22-0.23,6.29-0.52c1.85-0.25,3.66-0.69,5.44-1.16
			c1.09-0.29,1.13-0.96,0.1-1.37c-0.92-0.37-1.94-0.65-2.96-0.82c-1.47-0.25-2.99-0.39-4.49-0.52c-1.84-0.16-3.7-0.25-5.54-0.42
			c-1.13-0.1-1.57-0.95-0.73-1.51c0.62-0.42,1.48-0.82,2.28-0.88c3-0.21,6.02-0.21,9.01-0.43c2.13-0.15,4.24-0.49,6.34-0.8
			c0.39-0.06,0.91-0.36,0.99-0.61c0.08-0.23-0.27-0.65-0.59-0.82c-0.65-0.33-1.37-0.66-2.13-0.8c-2.59-0.46-5.21-0.82-7.81-1.26
			c-0.45-0.08-0.97-0.27-1.21-0.54c-0.12-0.13,0.3-0.57,0.55-0.82c0.8-0.81,1.86-1.22,3.26-1.19c2.89,0.07,5.78,0.15,8.66,0.09
			c2.5-0.05,5-0.22,7.47-0.47c0.76-0.08,1.44-0.61,2.16-0.94c-0.51-0.46-0.9-1.1-1.55-1.33c-1.63-0.56-3.4-0.9-5.07-1.4
			c-0.56-0.17-1.01-0.54-1.51-0.82c0.46-0.33,0.85-0.76,1.4-0.97c2.39-0.95,4.87-0.79,7.5-0.52c2.51,0.26,5.03,0.73,7.67,0.3
			c1.83-0.3,3.81-0.16,5.48-0.94c0.48-0.22,1.07-0.67,1.07-1.01c0-0.35-0.58-0.8-1.06-1.03c-0.69-0.34-1.56-0.47-2.27-0.78
			c-0.47-0.2-0.94-0.53-1.15-0.89c-0.08-0.13,0.53-0.57,0.93-0.75c2.8-1.29,5.73-1.21,8.82-0.6c4.44,0.88,8.97,1.36,13.58,0.75
			c0.45-0.06,0.91-0.16,1.31-0.32c2.18-0.85,2.29-1.68,0.43-2.92c-0.22-0.15-0.44-0.29-0.64-0.45c-0.72-0.57-0.64-1.04,0.39-1.25
			c2.98-0.6,5.89-1.13,9.04-0.19c4.51,1.35,9.26,1.77,14.1,1.11c0.92-0.13,1.83-0.49,2.64-0.86c0.79-0.36,1.03-0.93,0.71-1.64
			c-0.45-0.99-0.14-1.55,1.26-1.72c2.25-0.27,4.54-0.41,6.81-0.48c0.71-0.02,1.53,0.22,2.14,0.52c3.49,1.7,7.41,2.24,11.44,2.12
			c1.87-0.06,3.75-0.62,5.53-1.15c1.06-0.31,1.88-0.94,2.12-1.96c0.1-0.44,1.1-1.06,1.75-1.1c2.41-0.14,4.84-0.12,7.25-0.05
			c0.56,0.02,1.29,0.39,1.6,0.75c1.46,1.69,3.82,2.1,6.18,2.38c1.57,0.19,3.25,0.21,4.82,0.03c1.97-0.23,3.93-0.67,5.79-1.19
			c0.84-0.24,1.56-0.85,2.15-1.4c0.72-0.68,1.47-1.04,2.68-0.99c1.99,0.07,3.99,0.05,5.99,0.05c1.19,0.01,1.91,0.43,2.14,1.29
			c0.47,1.77,1.89,2.62,4.31,3.02c3.92,0.65,7.61-0.02,11.29-0.83c1.2-0.26,2.3-0.79,3.39-1.26c1.5-0.65,3.06-0.88,4.77-0.68
			c1.21,0.14,2.44,0.25,3.65,0.38c1.08,0.12,1.45,0.57,1.11,1.34c-0.72,1.6-0.41,2.2,1.67,2.64c4.76,1,9.6,0.99,14.06-0.58
			c3.66-1.28,7.08-1.1,10.66-0.22c0.97,0.24,1.1,0.74,0.32,1.26c-0.5,0.33-1.12,0.56-1.65,0.87c-1.43,0.83-1.33,1.77,0.33,2.31
			c0.96,0.31,2.02,0.55,3.05,0.61c4.21,0.24,8.39,0.16,12.45-0.9c1.87-0.49,3.82-0.49,5.75-0.07c0.69,0.15,1.41,0.24,2.07,0.43
			c0.39,0.12,0.91,0.36,0.97,0.6c0.05,0.22-0.39,0.59-0.73,0.74c-1.12,0.49-2.38,0.82-3.42,1.38c-0.65,0.35-1.01,1-1.51,1.52
			c0.77,0.4,1.5,1.07,2.32,1.14c3.1,0.25,6.22,0.43,9.34,0.4c1.74-0.02,3.47-0.49,5.2-0.77c1.44-0.24,2.77-0.03,4.05,0.48
			c0.4,0.16,0.87,0.23,1.26,0.4c0.34,0.14,0.62,0.37,0.92,0.56c-0.25,0.23-0.45,0.57-0.77,0.66c-1.62,0.47-3.29,0.83-4.9,1.31
			c-0.85,0.25-1.65,0.63-2.39,1.03c-0.72,0.39-0.85,0.87,0.11,1.21c0.72,0.25,1.45,0.56,2.21,0.64c3.52,0.36,7.03,0.77,10.61,0.17
			c1.34-0.22,2.79-0.11,4.19-0.06c0.56,0.02,1.21,0.2,1.62,0.47c0.53,0.35,1.03,0.84,1.19,1.33c0.06,0.17-0.88,0.67-1.45,0.78
			c-1.46,0.27-3,0.32-4.45,0.62c-1.61,0.33-3.21,0.75-4.71,1.29c-1.12,0.41-1.03,1.09,0.15,1.42c1.32,0.37,2.72,0.71,4.12,0.8
			c2.32,0.15,4.68,0,7,0.13c1.45,0.08,3.14-0.04,4.13,1.05c0.35,0.38,0.54,0.88,0.58,1.34c0.01,0.11-0.89,0.33-1.4,0.37
			c-2.85,0.27-5.72,0.45-8.56,0.76c-1.14,0.12-2.27,0.44-3.34,0.78c-0.42,0.13-0.89,0.54-0.94,0.86c-0.04,0.24,0.49,0.68,0.88,0.78
			c1.63,0.41,3.27,0.84,4.96,1.05c2,0.25,4.06,0.25,6.07,0.43c0.5,0.05,1.27,0.34,1.36,0.62c0.13,0.41-0.04,1.11-0.44,1.33
			c-0.7,0.38-1.65,0.63-2.53,0.69c-1.86,0.14-3.75,0.01-5.59,0.2c-2.58,0.27-5.14,0.71-7.68,1.14c-0.45,0.08-0.8,0.48-1.2,0.73
			c0.35,0.28,0.63,0.7,1.06,0.82c1.61,0.45,3.27,0.83,4.93,1.18c1.1,0.23,2.25,0.32,3.34,0.55c0.4,0.08,0.92,0.36,1,0.62
			c0.07,0.22-0.34,0.6-0.66,0.8c-2.01,1.26-4.37,1.31-6.84,1.06c-4.03-0.4-8.04-0.31-11.94,0.61c-0.63,0.15-1.09,0.69-1.63,1.04
			c0.46,0.37,0.83,0.9,1.41,1.09c1.65,0.53,3.4,0.88,5.08,1.37c0.58,0.17,1.06,0.52,1.58,0.79c-0.39,0.33-0.71,0.74-1.18,0.96
			c-2.45,1.17-5.15,0.81-7.77,0.54c-3.35-0.35-6.66-0.92-10.06-0.34c-1.02,0.18-2.1,0.24-3.06,0.52c-0.62,0.19-1.44,0.65-1.5,1.05
			c-0.06,0.41,0.6,0.98,1.13,1.3c0.64,0.39,1.52,0.54,2.23,0.88c0.43,0.2,0.91,0.53,1,0.86c0.05,0.19-0.55,0.58-0.96,0.73
			c-2.65,1.01-5.42,1.1-8.26,0.53c-3.24-0.65-6.52-1.12-9.88-0.95c-1.67,0.08-3.35,0.35-4.96,0.7c-1.65,0.36-1.9,1.27-0.8,2.23
			c0.03,0.02,0.05,0.05,0.08,0.07c0.45,0.5,0.9,0.99,1.35,1.49c-0.88,0.33-1.72,0.77-2.65,0.96c-2.72,0.54-5.35,0.17-7.95-0.58
			c-3.14-0.91-6.45-1.3-9.8-1.26c-1.65,0.02-3.35,0.3-4.92,0.71c-2.03,0.53-2.43,1.36-1.81,2.87c0.34,0.83-0.03,1.34-1.13,1.43
			c-1.81,0.15-3.63,0.26-5.44,0.4c-1.34,0.1-2.53-0.21-3.56-0.81c-2.26-1.32-4.9-1.76-7.68-1.86c-2.85-0.09-5.7-0.06-8.39,0.76
			c-1.4,0.43-2.83,0.87-2.7,2.37c0.02,0.29-0.74,0.85-1.19,0.88c-2.35,0.18-4.72,0.3-7.08,0.26c-0.64-0.01-1.37-0.58-1.87-1.02
			c-1.35-1.18-3.09-1.83-5.07-2.11c-1.6-0.23-3.25-0.43-4.87-0.4c-3.29,0.06-6.29,0.9-8.85,2.43c-1.36,0.82-2.77,1.26-4.53,1.18
			c-1.48-0.07-2.97-0.02-4.46-0.04c-1.23-0.02-1.83-0.45-2.15-1.38c-0.22-0.65-0.9-1.44-1.67-1.72c-2.73-0.98-5.59-1.33-8.72-0.99
			c-3.59,0.39-6.74,1.36-9.93,2.57c-1.48,0.56-3.61,0.21-5.45,0.2c-0.75,0-1.5-0.17-2.23-0.33c-0.37-0.08-0.87-0.25-0.98-0.46
			c-0.11-0.21,0.21-0.54,0.36-0.81c0.05-0.08,0.18-0.13,0.25-0.21c0.38-0.46,1.2-1.09,1.03-1.33c-0.35-0.48-1.18-0.93-1.93-1.08
			c-4.72-0.93-9.48-0.95-14.2,0c-1.83,0.37-3.56,1.22-5.38,1.31c-2.03,0.11-4.12-0.38-6.18-0.65
			C105.68,295.46,105.52,295.18,105.21,294.9z M186.98,253.58c0-0.06-0.01-0.12-0.01-0.18c-4.18,0.16-8.37,0.37-12.55,0.48
			c-4.87,0.13-9.68,0.6-14.46,1.27c-2.99,0.42-6.01,0.76-8.96,1.33c-4.98,0.95-9.89,2.09-14.46,3.89c-2.78,1.1-5.41,2.32-7.33,4.23
			c-1.99,1.98-2.17,4.25-0.24,6.1c1.04,1,2.3,1.93,3.7,2.64c4.64,2.37,9.86,3.79,15.3,4.73c4.6,0.79,9.25,1.53,13.93,1.98
			c4.87,0.47,9.79,0.66,14.7,0.81c8.45,0.26,16.9-0.01,25.28-0.8c6.77-0.63,13.56-1.36,20.04-3.08c3.72-0.99,7.46-2.01,11.03-3.26
			c2.73-0.96,5.18-2.32,6.92-4.26c1.76-1.97,1.78-3.73,0.02-5.69c-1.27-1.41-2.98-2.45-4.9-3.3c-5.05-2.22-10.56-3.6-16.26-4.52
			c-3.27-0.53-6.57-0.99-9.88-1.31c-4.47-0.43-8.97-0.78-13.47-1.02C192.59,253.46,189.78,253.58,186.98,253.58z M93.44,275.7
			c0,0.01,0,0.02,0,0.03c2.92-0.14,5.85-0.23,8.76-0.45c0.86-0.06,2.09-0.3,2.39-0.74c0.29-0.42-0.21-1.31-0.69-1.83
			c-1.66-1.84-3.54-3.57-5.16-5.42c-1.53-1.75-3.03-3.52-3.27-5.72c-0.05-0.42-0.82-0.98-1.43-1.15c-2.35-0.68-4.77-0.64-6.99,0.27
			c-0.97,0.39-1.88,1.05-2.46,1.75c-0.88,1.05-1.6,2.21-2.12,3.39c-0.68,1.53-1.73,3-0.79,4.78c1.19,2.25,4.63,5.37,9.21,5.09
			C91.73,275.66,92.59,275.7,93.44,275.7z M242.84,286.98c2.38-0.44,5.07-0.82,7.65-1.46c3.56-0.87,7.08-1.85,10.52-2.94
			c5.26-1.68,10.46-3.47,15.63-5.29c1.57-0.55,3.21-1.09,4.26-2.27c0.6-0.68,0.22-1.02-0.5-1.21c-0.86-0.23-1.8-0.29-2.71-0.41
			c-1.53-0.2-3.1-0.31-4.6-0.61c-4.05-0.82-7.71-0.55-11.29,1.3c-5.95,3.07-12.09,5.93-18.15,8.87c-1.48,0.72-2.99,1.41-4.41,2.2
			c-1.02,0.57-0.91,1.03,0.28,1.31C240.47,286.7,241.48,286.78,242.84,286.98z M179.16,242.46c-0.01-0.07-0.01-0.14-0.02-0.21
			c-6.72,0.37-13.46,0.64-20.17,1.15c-6.01,0.46-11.99,1.17-17.97,1.82c-3.24,0.35-6.46,0.79-9.68,1.25
			c-1.49,0.21-2.97,0.52-4.4,0.9c-1.38,0.36-1.63,1.01-0.58,1.54c2.46,1.24,4.86,2.68,8.18,2.25c1.12-0.14,2.25-0.27,3.37-0.42
			c3.11-0.41,6.22-0.8,9.32-1.25c3.22-0.48,6.41-1.08,9.64-1.53c4.28-0.6,8.59-1.1,12.89-1.64c2.94-0.37,5.9-0.69,8.83-1.09
			c2.48-0.34,4.96-0.75,7.41-1.2c0.48-0.09,0.84-0.51,1.26-0.78c-0.49-0.25-0.95-0.53-1.47-0.74c-0.24-0.09-0.58-0.05-0.88-0.05
			C182.98,242.46,181.07,242.46,179.16,242.46z M174.86,292.14c0-0.04,0.01-0.09,0.01-0.13c2.17,0,4.34,0.1,6.49-0.03
			c2.24-0.13,4.34-0.59,5.36-2.37c0.7-1.22,0.37-1.74-1.45-1.89c-1.73-0.14-3.47-0.28-5.2-0.31c-10.52-0.2-21.05-0.36-31.57-0.55
			c-3.1-0.06-6.19-0.23-9.29-0.24c-4.86-0.02-9.71-0.92-14.58-0.13c-0.58,0.09-1.08,0.45-1.62,0.69c0.53,0.3,1,0.76,1.58,0.87
			c2.46,0.44,4.94,0.83,7.43,1.13c3.66,0.44,7.33,0.83,11.01,1.17c3.32,0.31,6.64,0.58,9.97,0.76
			C160.29,291.48,167.58,291.8,174.86,292.14z M245.65,246.84c-1.38,0.16-2.38,0.19-3.3,0.4c-2.69,0.64-5.35,1.33-8.01,2.05
			c-0.31,0.08-0.61,0.45-0.64,0.7c-0.02,0.16,0.45,0.38,0.75,0.52c0.24,0.11,0.56,0.13,0.85,0.19c2.42,0.44,4.87,0.82,7.27,1.33
			c4.77,1.01,9.51,2.08,14.26,3.13c3.12,0.69,6.23,1.38,9.34,2.07c3.3,0.73,6.58,1.53,9.92,2.16c1.4,0.26,2.92,0.21,4.39,0.18
			c0.48-0.01,1.25-0.36,1.33-0.64c0.08-0.3-0.43-0.75-0.81-1.04c-3.91-3.06-9.14-4.53-14.15-6.18c-4.13-1.36-8.45-2.45-12.77-3.46
			C251.21,247.58,248.21,247.26,245.65,246.84z"/>
		<path class="st6" d="M93.44,275.7c-0.85,0-1.7-0.04-2.55,0.01c-4.58,0.27-8.02-2.85-9.21-5.09c-0.94-1.78,0.11-3.25,0.79-4.78
			c0.52-1.18,1.24-2.34,2.12-3.39c0.58-0.7,1.49-1.35,2.46-1.75c2.22-0.9,4.64-0.95,6.99-0.27c0.61,0.18,1.38,0.73,1.43,1.15
			c0.24,2.2,1.74,3.97,3.27,5.72c1.62,1.85,3.51,3.58,5.16,5.42c0.47,0.52,0.98,1.41,0.69,1.83c-0.31,0.44-1.53,0.68-2.39,0.74
			c-2.91,0.21-5.84,0.31-8.76,0.45C93.44,275.72,93.44,275.71,93.44,275.7z"/>
		<path class="st6" d="M242.84,286.98c-1.36-0.2-2.37-0.28-3.33-0.51c-1.19-0.28-1.3-0.74-0.28-1.31c1.41-0.79,2.93-1.48,4.41-2.2
			c6.06-2.95,12.21-5.81,18.15-8.87c3.58-1.85,7.24-2.12,11.29-1.3c1.5,0.3,3.06,0.41,4.6,0.61c0.91,0.12,1.85,0.18,2.71,0.41
			c0.72,0.19,1.11,0.54,0.5,1.21c-1.05,1.18-2.69,1.72-4.26,2.27c-5.17,1.82-10.37,3.61-15.63,5.29c-3.44,1.1-6.96,2.07-10.52,2.94
			C247.91,286.16,245.22,286.54,242.84,286.98z"/>
		<path class="st7" d="M179.16,242.46c1.91,0,3.82,0,5.73,0c0.3,0,0.64-0.04,0.88,0.05c0.52,0.21,0.98,0.49,1.47,0.74
			c-0.42,0.27-0.78,0.69-1.26,0.78c-2.45,0.45-4.92,0.86-7.41,1.2c-2.93,0.41-5.89,0.73-8.83,1.09c-4.3,0.54-8.61,1.04-12.89,1.64
			c-3.23,0.45-6.42,1.05-9.64,1.53c-3.1,0.46-6.21,0.84-9.32,1.25c-1.12,0.15-2.25,0.27-3.37,0.42c-3.32,0.43-5.72-1.01-8.18-2.25
			c-1.05-0.53-0.8-1.17,0.58-1.54c1.43-0.38,2.91-0.69,4.4-0.9c3.21-0.46,6.44-0.9,9.68-1.25c5.98-0.65,11.96-1.36,17.97-1.82
			c6.7-0.51,13.44-0.78,20.17-1.15C179.15,242.32,179.15,242.39,179.16,242.46z"/>
		<path class="st6" d="M174.86,292.14c-7.28-0.34-14.57-0.65-21.85-1.04c-3.33-0.18-6.66-0.45-9.97-0.76
			c-3.68-0.34-7.35-0.72-11.01-1.17c-2.49-0.3-4.97-0.69-7.43-1.13c-0.59-0.11-1.06-0.57-1.58-0.87c0.54-0.24,1.04-0.6,1.62-0.69
			c4.86-0.79,9.71,0.12,14.58,0.13c3.1,0.01,6.19,0.19,9.29,0.24c10.52,0.19,21.05,0.35,31.57,0.55c1.74,0.03,3.47,0.17,5.2,0.31
			c1.82,0.15,2.15,0.67,1.45,1.89c-1.02,1.78-3.11,2.24-5.36,2.37c-2.15,0.12-4.33,0.03-6.49,0.03
			C174.87,292.05,174.87,292.09,174.86,292.14z"/>
		<path class="st6" d="M245.65,246.84c2.57,0.42,5.57,0.74,8.42,1.41c4.32,1.01,8.64,2.1,12.77,3.46
			c5.01,1.65,10.24,3.12,14.15,6.18c0.38,0.3,0.89,0.74,0.81,1.04c-0.07,0.28-0.85,0.63-1.33,0.64c-1.46,0.03-2.99,0.08-4.39-0.18
			c-3.34-0.63-6.61-1.43-9.92-2.16c-3.11-0.69-6.23-1.38-9.34-2.07c-4.75-1.05-9.5-2.13-14.26-3.13c-2.4-0.51-4.84-0.89-7.27-1.33
			c-0.29-0.05-0.6-0.08-0.85-0.19c-0.3-0.13-0.77-0.36-0.75-0.52c0.03-0.25,0.34-0.62,0.64-0.7c2.65-0.72,5.32-1.41,8.01-2.05
			C243.26,247.03,244.26,247,245.65,246.84z"/>
	</g>
	<path class="st8" d="M335.34,374.24"/>
	<path class="st4" d="M295.34,212.49"/>
	<path class="st8" d="M339.65,328.43"/>
	<rect x="7.62" y="104.11" class="st0" width="20.94" height="13.89"/>
</g>
</svg>
