<?xml version="1.0" encoding="utf-8"?>
<!-- Generator: Adobe Illustrator 27.7.0, SVG Export Plug-In . SVG Version: 6.00 Build 0)  -->
<svg version="1.1" xmlns="http://www.w3.org/2000/svg" xmlns:xlink="http://www.w3.org/1999/xlink" x="0px" y="0px"
	 viewBox="0 0 500 250" style="enable-background:new 0 0 500 250;" xml:space="preserve">
<style type="text/css">
	.st0{fill:#747474;}
	.st1{display:none;}
	.st2{font-family:'Rockwell-ExtraBold';}
	.st3{font-size:146px;}
	.st4{fill:none;stroke:#000000;stroke-miterlimit:10;}
	.st5{stroke:#000000;stroke-miterlimit:10;}
	.st6{fill:#747474;stroke:#000000;stroke-miterlimit:10;}
	.st7{fill:#FFFFFF;stroke:#FFFFFF;stroke-miterlimit:10;}
	.st8{fill:#747474;stroke:#FFFFFF;stroke-miterlimit:10;}
</style>
<g id="Layer_1">
</g>
<g id="Concept_3">
	<rect y="0" class="st0" width="500" height="250"/>
	<text transform="matrix(1 0 0 1 -4.1865 104.9834)" class="st1 st2 st3">Pedal</text>
	<text transform="matrix(1 0 0 1 0 233.4131)" class="st1 st2 st3">Stoke</text>
	<g>
		<g>
			<path d="M110.02,24.81c-2.4-5.12-5.84-8.21-7.7-9.68c-2.33-1.68-6.12-4.1-11.21-5.94c-6.13-2.21-11.26-2.68-14.11-2.68
				C52.07,6.5,27.15,6.49,2.23,6.48v23.74h9.62v51.68H2.23v23.74h57.96V81.91h-9.98V68c12.02,0.88,21.85,0.41,28.89-0.26
				c8.41-0.79,11.84-1.73,14.97-3.14c8.28-3.72,13.21-10.08,15.78-14.12c0.89-4.36,1.78-8.71,2.66-13.07
				C112.63,35.03,112.54,30.18,110.02,24.81z"/>
		</g>
	</g>
	<g>
		<g>
			<path d="M203.48,73.97c0.07-3.2-0.19-7.59-1.56-12.59c-1.09-3.95-2.56-7.18-3.9-9.61c-1.9-2.88-5.48-7.49-11.42-11.29
				c-7.84-5.01-15.48-5.87-19.13-6.03c-3.85-0.67-8.44-1.05-13.57-0.7c-7.09,0.49-12.26,2.2-13.66,2.68
				c-2.18,0.75-5.62,1.95-9.57,4.47c-2.62,1.67-7.08,4.56-10.73,9.98c-4.47,6.65-5.02,13.23-5.41,16.52
				c-0.35,2.99-0.62,8.74,1.8,15.32c2.83,7.7,7.79,12.29,10.16,14.23c7.29,5.96,14.58,7.9,20.17,9.2c8.15,1.89,15.6,1.81,21.66,1.02
				c3.66-0.24,9.17-1.04,15.28-3.73c5.09-2.24,8.88-5.02,11.41-7.21c2.28-3.16,4.55-6.32,6.83-9.48l-29.58-3.64
				c-0.34,0.98-1.51,3.91-4.57,5.8c-3.31,2.04-6.66,1.54-8.15,1.32c-1.21-0.18-5.66-0.85-8.66-4.8c-3.82-5.03-2.03-10.89-1.85-11.43
				C167.17,73.97,185.32,73.97,203.48,73.97z"/>
		</g>
		<g>
			<path class="st4" d="M203.48,73.97c0.07-3.2-0.19-7.59-1.56-12.59c-1.09-3.95-2.56-7.18-3.9-9.61
				c-1.9-2.88-5.48-7.49-11.42-11.29c-7.84-5.01-15.48-5.87-19.13-6.03c-3.85-0.67-8.44-1.05-13.57-0.7
				c-7.09,0.49-12.26,2.2-13.66,2.68c-2.18,0.75-5.62,1.95-9.57,4.47c-2.62,1.67-7.08,4.56-10.73,9.98
				c-4.47,6.65-5.02,13.23-5.41,16.52c-0.35,2.99-0.62,8.74,1.8,15.32c2.83,7.7,7.79,12.29,10.16,14.23
				c7.29,5.96,14.58,7.9,20.17,9.2c8.15,1.89,15.6,1.81,21.66,1.02c3.66-0.24,9.17-1.04,15.28-3.73c5.09-2.24,8.88-5.02,11.41-7.21
				c2.28-3.16,4.55-6.32,6.83-9.48l-29.58-3.64c-0.34,0.98-1.51,3.91-4.57,5.8c-3.31,2.04-6.66,1.54-8.15,1.32
				c-1.21-0.18-5.66-0.85-8.66-4.8c-3.82-5.03-2.03-10.89-1.85-11.43C167.17,73.97,185.32,73.97,203.48,73.97z"/>
		</g>
	</g>
	<path class="st5" d="M276.98,40.25c-2.21-1.19-4.99-2.45-8.32-3.44c-4.6-1.38-8.69-1.79-11.79-1.85c-3.04-0.3-7.45-0.38-12.59,0.7
		c-5.27,1.12-9.35,3.05-12.03,4.59c-2.36,1.65-5.73,4.42-8.78,8.68c-3.36,4.71-4.9,9.24-5.64,12.14c-0.75,2.86-1.47,6.95-1.26,11.86
		c0.26,5.95,1.81,10.67,3.06,13.67c1.61,2.84,4.6,7.3,9.71,11.35c5.3,4.21,10.54,6.13,13.72,7.03c4.01,0.97,10.84,2.07,19.09,0.63
		c6.52-1.13,11.56-3.44,14.83-5.27c0,1.54,0,3.09,0,4.63h44.84V83.24h-8.98V5.82h-44.7v21.74h8.84V40.25z"/>
	<path class="st6" d="M169.95,63.37c-0.13,0.93-0.94,1.62-1.88,1.62h-17.03c-0.97,0-1.89-1.68-1.89-1.68s-0.16-6.34,2.79-9.73
		c0.18-0.21,0.37-0.41,0.56-0.6c3.74-3.71,9.87-3.78,13.75-0.21c0.61,0.56,1.2,1.22,1.73,2C170.19,58,170.2,61.4,169.95,63.37z"/>
	<path class="st5" d="M332.73,52.3c0.93-2.01,2.45-4.73,4.91-7.49c2.82-3.15,5.75-5.1,7.82-6.25c4.19-1.31,9.1-2.56,14.65-3.45
		c5.96-0.96,11.37-1.29,16.01-1.32c3.46-0.12,7.22-0.11,11.23,0.13c5.56,0.32,10.63,1,15.11,1.84c1.86,0.14,7.69,0.8,12.9,5.43
		c4.73,4.2,6.23,9.24,6.69,11.12c0.32,1.46,0.76,3.77,1.05,6.64c0.48,4.74,0.23,7.76,0.17,12.6c-0.03,2.71-0.01,6.73,0.29,11.71
		c2.95,0,5.89,0,8.84,0v21.74h-44.7v-4.71c-3.55,1.92-9.26,4.46-16.7,5.55c-8.13,1.19-14.84,0.13-18.92-0.84
		c-2.32-0.57-5.88-1.73-9.61-4.26c-3.51-2.38-5.82-5.04-7.21-6.91c-0.7-1.33-2.87-5.84-1.8-11.71c1.05-5.77,4.58-9.2,5.71-10.21
		c1.51-1.65,4.16-4.12,8.11-6.01c2.91-1.39,5.26-1.82,8.41-2.4c3.99-0.74,7.03-0.83,10.7-0.92c2.84-0.07,6.67-0.05,11.22,0.32
		c3.37,1.06,6.73,2.12,10.1,3.18c0.36-1.77,0.7-4.76-0.35-8.14c-0.49-1.59-1.21-3.93-3.44-5.84c-2.1-1.81-4.42-2.28-5.52-2.43
		c-1.24-0.45-4.99-1.62-9.5-0.28c-4.77,1.42-7.33,4.74-8.07,5.78C351.45,54.2,342.09,53.25,332.73,52.3z"/>
	<polygon class="st5" points="441.3,83.24 441.3,104.98 490.84,104.98 490.84,83.24 484.5,83.24 484.5,5.82 441.3,5.82 441.3,27.56 
		448.64,27.56 448.64,83.24 	"/>
	<path class="st7" d="M469.79,202.4h-54.46c-0.11,3.83,0.8,6.72,1.46,8.36c0.88,2.2,1.86,4.65,4.43,6.47c2.61,1.85,5.41,2,6.66,1.99
		c1.15-0.1,3.91-0.48,6.61-2.5c2.48-1.86,3.62-4.13,4.08-5.2c9.86,1.21,19.72,2.42,29.58,3.64c-1.01,2.07-2.55,4.69-4.9,7.35
		c-3.34,3.78-6.9,6.05-9.36,7.34c-2.74,1.37-6.22,2.82-10.39,3.9c-5.65,1.46-10.63,1.74-14.35,1.66c-4.22,0.01-9.29-0.3-14.93-1.32
		c-4.83-0.88-9.06-2.09-12.62-3.33c-2.81-1.14-10.92-4.84-16.15-13.86c-3.39-5.84-4.11-11.4-4.27-14.49
		c-0.2-3.15-0.14-7.91,1.38-13.42c1.48-5.37,3.78-9.4,5.53-11.98c2.55-2.73,6.98-6.8,13.54-9.98c6.68-3.23,12.74-4.16,16.49-4.44
		c4.53-0.49,10.65-0.67,17.72,0.52c5.29,0.89,9.76,2.33,13.28,3.74c2.81,1.78,6.2,4.29,9.62,7.74c2.89,2.92,5.08,5.79,6.72,8.26
		c1.04,2.75,2.08,6,2.89,9.7C469.16,196.19,469.59,199.51,469.79,202.4z"/>
	<polygon class="st7" points="325.79,164.26 369.99,164.26 369.99,183.01 361.93,183.01 348.96,195.7 364.57,211.67 370.2,211.67 
		370.2,233.41 344.47,233.41 315.88,203.33 338.41,181.3 325.79,181.3 	"/>
	<polygon class="st7" points="315.88,134.25 315.88,233.41 271.18,233.41 271.18,211.67 280.02,211.67 280.02,155.99 271.04,155.99 
		271.04,134.25 	"/>
	<path class="st7" d="M193.81,164.26c5.12-1.16,11.99-2.17,20.09-1.84c6.05,0.25,11.29,1.2,15.49,2.26
		c4.7,1.11,12.12,3.55,19.36,9.36c3.33,2.68,5.88,5.46,7.79,7.91c1.08,1.9,2.31,4.47,3.19,7.66c0.63,2.29,1.5,6.6,1.05,12
		c-0.18,2.16-0.64,5.01-1.82,8.17c-1.64,4.42-3.98,7.6-5.69,9.55c-1.45,2.07-3.8,4.92-7.33,7.55c-4.06,3.02-8,4.49-10.6,5.23
		c-2.68,0.97-5.93,1.91-9.7,2.55c-4.65,0.79-8.76,0.88-12.06,0.73c-3.12,0.14-6.86,0.07-11.05-0.47c-4.27-0.56-7.96-1.47-10.98-2.43
		c-3.04-0.97-7.22-2.68-11.62-5.74c-5.01-3.49-8.31-7.37-10.32-10.13c-1.43-1.95-3.52-5.29-4.74-9.91
		c-1.2-4.54-1.06-8.42-0.79-10.81c0.51-3.22,1.74-8.27,5.01-13.58c2.22-3.61,4.71-6.25,6.7-8.05c2.31-1.93,5.29-4.11,9-6.12
		C188.09,166.37,191.18,165.13,193.81,164.26z"/>
	<path class="st7" d="M102.37,153.64l35.86-17.04v27.66h14.47v21.74h-14.47l0.02,18.32c-0.02,0.27-0.2,3.02,1.98,4.82
		c1.69,1.4,3.64,1.27,4.06,1.24c2.8-0.74,5.61-1.47,8.41-2.21v21.24c-2.6,1.42-6,2.97-10.12,4.13c-5.28,1.49-9.94,1.86-13.4,1.85
		c-2.26,0.22-6.62,0.33-11.54-1.62c-4.12-1.64-6.75-3.98-7.79-4.98c-5-4.8-6.49-10.53-6.98-13c-0.17-9.93-0.33-19.87-0.5-29.8h-8.84
		v-21.74h8.84V153.64z"/>
	<path class="st7" d="M81.34,134.25v28.23H59.17c-0.56-1.72-1.8-4.76-4.6-7.59c-1.88-1.9-3.82-3.05-5.21-3.72
		c-1.05-0.23-2.64-0.47-4.59-0.38c-2.36,0.11-4.24,0.2-5.64,1.55c-1.56,1.51-1.65,3.73-1.63,4.65c-0.01,0.91,0.12,2.19,0.86,3.39
		c1.12,1.81,2.98,2.37,4.98,3.19c1.93,0.79,4.53,2.05,7.52,4.11c7.52,3.23,13.08,6.41,16.09,8.4c3.04,2,5.91,4.24,5.91,4.24
		c1.06,0.82,1.94,1.55,2.62,2.12c1.91,1.62,5.07,4.73,7.3,9.6c2.9,6.33,2.61,12.09,2.31,14.68c-0.17,2.35-0.7,5.9-2.44,9.83
		c-2.02,4.57-4.78,7.64-6.59,9.37c-1.74,1.66-4.45,3.87-8.21,5.69c-3.94,1.9-7.52,2.63-9.96,2.94c-2.86,0.22-6.53,0.25-10.72-0.38
		c-3.87-0.58-7.13-1.56-9.67-2.52c-2.85-1.58-5.7-3.15-8.55-4.73v6.49H6.63v-31.79h22.31c0.43,1.73,1.71,5.92,5.59,9.45
		c2.76,2.52,5.66,3.61,7.32,4.1c3.65,0.45,7.01-0.49,8.51-2.57c0.41-0.58,1.04-1.74,1.4-3.19c0.3-1.21,0.33-2.26,0.3-2.98
		c-0.37-0.64-1-1.66-1.96-2.77c-3.18-3.69-6.72-4.73-13.54-7.74c-1.87-0.83-4.73-2.13-8.23-3.9c-2.45-1.02-5.91-2.73-9.56-5.56
		c-3.18-2.46-8.27-6.4-11.06-13.43c-1.57-3.97-1.94-7.72-1.88-10.68c-0.17-2.06-0.56-9.75,4.69-17.15
		c5.07-7.15,12.13-9.39,14.17-9.96c2.94-1.08,8.31-2.62,15.06-2.04c5.45,0.47,9.69,2.13,12.3,3.41c2.27,1.26,4.55,2.52,6.82,3.78
		v-6.13H81.34z"/>
	<path class="st4" d="M134.36,36.81"/>
	<path class="st8" d="M200.11,197.12c0.13-1.38,1.03-10.7,7.78-13.76c2.06-0.93,4.03-0.99,5.26-0.92c1.5,0.01,4.71,0.27,7.25,2.58
		c1.81,1.65,2.47,3.6,3.32,6.13c1,2.98,1.27,5.58,1.34,7.33c0.16,1.35,0.26,3.47-0.31,5.94c-0.41,1.8-1.17,5.07-4.09,7.66
		c-3.17,2.81-6.91,3.05-8.15,3.08c-1.31-0.03-3.61-0.27-5.9-1.67c-3.83-2.35-5.04-6.37-5.74-8.68
		C199.86,201.46,199.97,198.6,200.11,197.12z"/>
	<path class="st6" d="M252.7,70.03c0.4-7.13,3.61-12.92,8.43-14.59c1-0.34,2.38-0.62,4.16-0.44c2.59-0.13,4.39,0.55,5.42,1.08
		c4.5,2.29,7.03,8.04,6.51,14.56c0.03,0.37,0.54,9.21-5.87,13.27c-2.38,1.51-4.82,1.79-6.34,1.82c-2.36-0.07-4.07-0.74-5.15-1.31
		C252.72,80.67,252.7,70.52,252.7,70.03z"/>
	<path class="st6" d="M387.69,74.69V87.3c-1.03,0.76-2.45,1.65-4.26,2.36c-2.64,1.03-5,1.26-6.57,1.28c-0.77-0.01-4-0.15-6.7-2.71
		c-3.18-3.02-3.09-7.02-3.07-7.63c0.1-0.68,0.67-4.12,3.83-6.51c2.83-2.13,5.86-2.02,6.65-1.97c1.31-0.04,3.13,0.03,5.22,0.56
		C384.9,73.21,386.55,74.02,387.69,74.69z"/>
	<path class="st8" d="M415.76,193.42h20.17c0.98-5.22-0.61-10.3-4.25-13.12c-2.2-1.7-4.59-2.15-6.01-2.28
		c-2.26-0.09-3.81,0.52-4.71,1C416.84,181.23,414.74,186.97,415.76,193.42z"/>
	<path class="st6" d="M71.17,42.3c-0.4,0.56-1.28,1.63-3.32,2.55C62,47.5,52.19,46.41,50.21,46.17V27.56c0,0,4.39-0.43,7.56-0.33
		c5.4,0.17,8.64,0.32,11.23,2.56c0.89,0.77,2.58,2.55,3.32,6.12C72.51,36.99,72.88,39.88,71.17,42.3z"/>
</g>
</svg>
